<?xml version="1.0" encoding="utf-8"?>
<!-- Generator: Adobe Illustrator 24.0.3, SVG Export Plug-In . SVG Version: 6.00 Build 0)  -->
<svg version="1.1" id="Layer_1" xmlns="http://www.w3.org/2000/svg" xmlns:xlink="http://www.w3.org/1999/xlink" x="0px" y="0px"
	 viewBox="0 0 841.9 595.3" style="enable-background:new 0 0 841.9 595.3;" xml:space="preserve">
<style type="text/css">
	.st0{fill:#FFFFFF;}
</style>
<path class="st0" d="M658.2,49.4H205.7C190.9,49.4,179,61.3,179,76v318.5c0,14.7,11.9,26.6,26.6,26.6h214.9l133,97.4
	c4.7,3.4,10.2,5.1,15.8,5.1c4.3,0,8.6-1.1,12.6-3.1c8.8-4.7,14.1-14.3,14.1-24.3l-0.1-75.1h62.2c14.8,0,26.6-11.9,26.6-26.6V76
	C684.8,61.3,672.9,49.4,658.2,49.4z M390.8,260.9c-1.4,0.4-2.9,0.6-4.3,0.6c-7,0-13.4-4.6-15.4-11.7c-4.4-16-19.2-27.2-35.8-27.2
	c-16.7,0-31.4,11.2-35.8,27.2c-2.4,8.5-11.2,13.5-19.7,11.1c-8.5-2.4-13.5-11.2-11.1-19.7c8.3-29.8,35.7-50.6,66.6-50.6
	c31,0,58.4,20.8,66.6,50.6C404.3,249.7,399.3,258.5,390.8,260.9z M584,260.9c-1.4,0.4-2.9,0.6-4.3,0.6c-7,0-13.4-4.6-15.4-11.7
	c-4.4-16-19.2-27.2-35.8-27.2c-16.7,0-31.4,11.2-35.8,27.2c-2.4,8.5-11.2,13.5-19.7,11.1c-8.5-2.4-13.5-11.2-11.1-19.7
	c8.3-29.8,35.7-50.6,66.6-50.6c31,0,58.4,20.8,66.6,50.6C597.5,249.7,592.5,258.5,584,260.9z"/>
</svg>
