<svg xmlns="http://www.w3.org/2000/svg" viewBox="0 0 1308.51 255.43"><defs><style>.cls-1{fill:#fff;}</style></defs><title>rectAsset 2</title><g id="Layer_2" data-name="Layer 2"><g id="Layer_1-2" data-name="Layer 1"><path class="cls-1" d="M0,71.15q4.1-3.54,14.31-7.91a152.68,152.68,0,0,1,22.9-7.5,102.09,102.09,0,0,1,24.4-3.13q22.62,0,31.35,6.82V89.14q-10.9-2.46-31.35-2.45a131.78,131.78,0,0,0-21,1.36V194.64H0Z"/><path class="cls-1" d="M231.17,136.3h-91q5.17,28.62,38.44,28.62a69.37,69.37,0,0,0,19.77-2.86,191.45,191.45,0,0,0,20.58-7.49v34.89q-22.36,9.27-50.16,9.27-21,0-36.8-8.59a59.84,59.84,0,0,1-24.54-24.67q-8.73-16.08-8.72-37.89,0-36,17.85-55.75t50.84-19.76Q232,52.07,231.17,136.3Zm-91.32-25.9h51q-1.91-14.72-7.77-21t-17.31-6.26Q143.94,83.15,139.85,110.4Z"/><path class="cls-1" d="M282.15,190.28a61.09,61.09,0,0,1-26-23.85q-9.68-16-9.67-38.85,0-36.79,19.62-55.75t52.35-18.95a119.7,119.7,0,0,1,23.17,2.32,94.43,94.43,0,0,1,20.72,6.41V96.5A174.68,174.68,0,0,0,342.4,89,61.34,61.34,0,0,0,325,86.41q-18,0-28.08,8.86T286.78,123q0,21,9.41,31.07t30.67,10.09q16.08,0,35.71-10.91v34.63a89,89,0,0,1-20.31,7.76,98.47,98.47,0,0,1-23.58,2.59Q298.51,198.18,282.15,190.28Z"/><path class="cls-1" d="M406.32,188.91q-11.85-11.16-11.86-32.16v-69H374.29V56.7h20.17V18.81H437V56.7h30.26V87.78H437v63.79q0,7.1,3,10.49t10.09,3.41a29.15,29.15,0,0,0,9-1.5,26.74,26.74,0,0,0,8.18-4.22v34.62q-10.37,5.72-25.35,5.73Q418.18,200.1,406.32,188.91Z"/><path class="cls-1" d="M594,63.11q18.54,10.5,18.54,37.75L612.28,166Q612,183.2,595.1,191t-49.34,7.77q-60.52,0-60.52-47.16,0-19.89,12.41-31.08t36.93-11.18a81.19,81.19,0,0,1,20.18,2.59,73.87,73.87,0,0,1,17.44,6.68v-8.72q0-23.72-30.53-23.72a74.48,74.48,0,0,0-24.12,4.23q-12.4,4.23-19.77,10.22v-36q7.37-4.92,22.49-8.45a142.26,142.26,0,0,1,32.58-3.55A82.06,82.06,0,0,1,594,63.11ZM566.75,168.2a7.45,7.45,0,0,0,5.45-7.64V139.3a64.35,64.35,0,0,0-21-3.27q-13.35,0-19.49,3.95t-6.13,12.41A15.4,15.4,0,0,0,532,165.2a24.19,24.19,0,0,0,15.14,4.9Q561.29,170.1,566.75,168.2Z"/><path class="cls-1" d="M675.52,57.79q21.81-4.9,39-4.91,29.18,0,43.89,11.46T773.11,102v92.69H732.49V110.13q0-23.72-26.71-23.72a57.6,57.6,0,0,0-12.27,1.37,38.51,38.51,0,0,0-9.81,3.27V194.64H643.08V68.43Q653.71,62.7,675.52,57.79Z"/><path class="cls-1" d="M915.55,62.56q15.68,9.68,15.67,27.4V196.28q0,28.62-18.26,43.89t-52.07,15.26A167,167,0,0,1,830.36,253q-13.08-2.46-20.45-6.54V210.73q7.9,3.81,22.08,7.35a112,112,0,0,0,27.27,3.55q17.72,0,24.94-7.09t7.22-19.9v-7.9q-13.9,12-34.89,12-28.9-1.36-44.71-18.4T796,130Q796,87,815.77,69.92t57.39-17Q899.88,52.88,915.55,62.56Zm-70.88,94.87a26.42,26.42,0,0,0,22.22,11,48.33,48.33,0,0,0,24.53-6.27V99q0-13.9-21.81-13.91-33.25,0-33.26,42.53Q836.35,146.39,844.67,157.43Z"/><path class="cls-1" d="M959.84,194.64V4.63h40.35v190Z"/><path class="cls-1" d="M1155.58,136.3h-91q5.17,28.62,38.43,28.62a69.32,69.32,0,0,0,19.77-2.86,190.68,190.68,0,0,0,20.58-7.49v34.89q-22.36,9.27-50.16,9.27-21,0-36.8-8.59a59.9,59.9,0,0,1-24.54-24.67q-8.73-16.08-8.72-37.89,0-36,17.85-55.75t50.85-19.76Q1156.4,52.07,1155.58,136.3Zm-91.33-25.9h51q-1.9-14.72-7.77-21t-17.31-6.26Q1068.34,83.15,1064.25,110.4Z"/><path class="cls-1" d="M1308.51,0V158.66a29.66,29.66,0,0,1-9,21.8q-9,9-23.72,13.63a103.77,103.77,0,0,1-31.35,4.64q-35.16,0-54.38-16.63t-19.22-57.52q0-34.35,16.77-53.29t49.2-19q19.35,0,31.35,7.09V0Zm-40.35,90.78q-10.9-5.73-21.26-5.73-18.27,0-26.72,9.27t-8.45,31.35q0,19.08,7.91,29t26.44,9.94q10.08,0,16.08-2.73t6-7.63Z"/></g></g></svg>